<svg xmlns="http://www.w3.org/2000/svg" xmlns:xlink="http://www.w3.org/1999/xlink" width="150" zoomAndPan="magnify" viewBox="0 0 112.5 112.499997" height="150" preserveAspectRatio="xMidYMid meet" version="1.0"><defs><clipPath id="c4681a4cc0"><path d="M 11.199219 24.976562 L 100.800781 24.976562 L 100.800781 84.710938 L 11.199219 84.710938 Z M 11.199219 24.976562 " clip-rule="nonzero"/></clipPath></defs><g clip-path="url(#c4681a4cc0)"><path fill="#e7e5e3" d="M 97.101562 43.851562 C 97.101562 44.085938 97.101562 44.351562 97.035156 44.585938 L 91.535156 66.59375 C 91.265625 67.695312 90.265625 68.496094 89.132812 68.496094 L 56.117188 68.664062 L 23.070312 68.664062 C 21.9375 68.664062 20.9375 67.894531 20.636719 66.761719 L 15.132812 44.683594 C 15.066406 44.417969 15.066406 44.152344 15.066406 43.917969 C 12.933594 43.25 11.398438 41.25 11.398438 38.914062 C 11.398438 36.015625 13.765625 33.648438 16.667969 33.648438 C 19.570312 33.648438 21.9375 36.015625 21.9375 38.914062 C 21.9375 40.550781 21.203125 42.015625 20.003906 42.984375 L 26.90625 49.921875 C 28.605469 51.65625 31.039062 52.65625 33.507812 52.65625 C 36.441406 52.65625 39.210938 51.253906 40.976562 48.953125 L 52.28125 33.945312 C 51.316406 33.011719 50.75 31.679688 50.75 30.246094 C 50.75 27.34375 53.117188 24.976562 56.019531 24.976562 C 58.917969 24.976562 61.285156 27.34375 61.285156 30.246094 C 61.285156 31.644531 60.71875 32.914062 59.820312 33.878906 L 71.058594 48.921875 C 72.824219 51.253906 75.59375 52.65625 78.527344 52.65625 C 81.027344 52.65625 83.363281 51.6875 85.128906 49.921875 L 92.066406 42.984375 C 90.867188 42.015625 90.097656 40.550781 90.097656 38.882812 C 90.097656 35.980469 92.46875 33.613281 95.367188 33.613281 C 98.269531 33.613281 100.636719 35.980469 100.636719 38.882812 C 100.605469 41.183594 99.136719 43.117188 97.101562 43.851562 Z M 91 76.5 C 91 75.132812 89.867188 73.996094 88.5 73.996094 L 23.804688 73.996094 C 22.4375 73.996094 21.300781 75.132812 21.300781 76.5 L 21.300781 82.5 C 21.300781 83.867188 22.4375 85.003906 23.804688 85.003906 L 88.5 85.003906 C 89.867188 85.003906 91 83.867188 91 82.5 Z M 91 76.5 " fill-opacity="1" fill-rule="nonzero"/></g></svg>